<svg xmlns:xlink="http://www.w3.org/1999/xlink" width="26" xmlns="http://www.w3.org/2000/svg" height="26" id="screenshot-e69806c9-410a-8096-8002-ac7d5c7ed12c" viewBox="-1 -1 26 26" style="-webkit-print-color-adjust: exact;" fill="none" version="1.1"><g id="shape-e69806c9-410a-8096-8002-ac7d5c7ed12c" width="24" class="lucide lucide-heart" height="24" rx="0" ry="0" style="fill: rgb(0, 0, 0);"><g id="shape-e69806c9-410a-8096-8002-ac7d5c7ed12e"><g class="fills" id="fills-e69806c9-410a-8096-8002-ac7d5c7ed12e"><path fill="none" stroke-linecap="round" stroke-linejoin="round" rx="0" ry="0" d="M19.000,14.000C20.490,12.540,22.000,10.790,22.000,8.500C22.000,5.462,19.538,3.000,16.500,3.000C14.740,3.000,13.500,3.500,12.000,5.000C10.500,3.500,9.260,3.000,7.500,3.000C4.462,3.000,2.000,5.462,2.000,8.500C2.000,10.800,3.500,12.550,5.000,14.000L12.000,21.000Z" style="fill: rgb(255, 115, 83); fill-opacity: 1;"/></g><g id="strokes-e69806c9-410a-8096-8002-ac7d5c7ed12e" class="strokes"><g class="stroke-shape"><path stroke-linecap="round" stroke-linejoin="round" rx="0" ry="0" d="M19.000,14.000C20.490,12.540,22.000,10.790,22.000,8.500C22.000,5.462,19.538,3.000,16.500,3.000C14.740,3.000,13.500,3.500,12.000,5.000C10.500,3.500,9.260,3.000,7.500,3.000C4.462,3.000,2.000,5.462,2.000,8.500C2.000,10.800,3.500,12.550,5.000,14.000L12.000,21.000Z" style="fill: none; stroke-width: 2; stroke: rgb(255, 115, 83); stroke-opacity: 1;"/></g></g></g></g></svg>