<svg xmlns:xlink="http://www.w3.org/1999/xlink" width="280" xmlns="http://www.w3.org/2000/svg" height="280" id="screenshot-347b2dc6-3bc9-80c3-8002-f97d4dcbe037" viewBox="0 0 280 280" style="-webkit-print-color-adjust: exact;" fill="none" version="1.1"><g id="shape-347b2dc6-3bc9-80c3-8002-f97d4dcbe037"><defs><clipPath class="frame-clip-def frame-clip" id="frame-clip-347b2dc6-3bc9-80c3-8002-f97d4dcbe037-rumext-id-1"><rect rx="0" ry="0" x="0" y="0" width="279.9999999999982" height="280" transform="matrix(1.000000, 0.000000, 0.000000, 1.000000, 0.000000, 0.000000)"/></clipPath></defs><g clip-path="url(#frame-clip-347b2dc6-3bc9-80c3-8002-f97d4dcbe037-rumext-id-1)" fill="none"><clipPath class="frame-clip-def frame-clip" id="frame-clip-347b2dc6-3bc9-80c3-8002-f97d4dcbe037-rumext-id-1"><rect rx="0" ry="0" x="0" y="0" width="279.9999999999982" height="280" transform="matrix(1.000000, 0.000000, 0.000000, 1.000000, 0.000000, 0.000000)"/></clipPath><g class="fills" id="fills-347b2dc6-3bc9-80c3-8002-f97d4dcbe037"><rect rx="0" ry="0" x="0" y="0" transform="matrix(1.000000, 0.000000, 0.000000, 1.000000, 0.000000, 0.000000)" width="279.9999999999982" height="280" class="frame-background"/></g><g class="frame-children"><g id="shape-347b2dc6-3bc9-80c3-8002-f97d4dcbe038" rx="0" ry="0"><g id="shape-347b2dc6-3bc9-80c3-8002-f97d4dcbe03a" rx="0" ry="0"><g id="shape-347b2dc6-3bc9-80c3-8002-f97d4dcbe040"><g class="fills" id="fills-347b2dc6-3bc9-80c3-8002-f97d4dcbe040"><path rx="0" ry="0" d="M136.868,90.263C162.092,90.263,204.132,90.263,204.132,90.263C204.132,90.263,164.895,90.263,136.868,90.263ZC136.868,73.084,149.750,55.000,168.632,55.000C184.317,55.000,203.197,64.946,204.132,90.263" style="fill: rgb(255, 115, 83); fill-opacity: 1;"/></g><g id="strokes-347b2dc6-3bc9-80c3-8002-f97d4dcbe040" class="strokes"><g class="stroke-shape"><path rx="0" ry="0" d="M136.868,90.263C162.092,90.263,204.132,90.263,204.132,90.263C204.132,90.263,164.895,90.263,136.868,90.263ZC136.868,73.084,149.750,55.000,168.632,55.000C184.317,55.000,203.197,64.946,204.132,90.263" style="fill: none; stroke-width: 3.70835; stroke: rgb(255, 115, 83); stroke-opacity: 1;"/></g></g></g><g id="shape-347b2dc6-3bc9-80c3-8002-f97d4dcbe041"><g class="fills" id="fills-347b2dc6-3bc9-80c3-8002-f97d4dcbe041"><path d="M116.34008836048962,112.6317365269449 h112.0281751125657 a0,0 0 0 1 0,0 v71.00000000000136 a0,0 0 0 1 0,0 h-112.0281751125657 a3.7083518335444814,3.7083518335444814 0 0 1 -3.7083518335444814,-3.7083518335444814 v-63.5832963329124 a3.7083518335444814,3.7083518335444814 0 0 1 3.7083518335444814,-3.7083518335444814 z" x="112.63173652694513" y="112.6317365269449" transform="matrix(0.000000, -1.000000, 1.000000, -0.000000, 22.368263, 318.631737)" width="115.73652694611019" height="71.00000000000136" style="fill: rgb(48, 47, 68); fill-opacity: 1;"/></g></g></g></g><g id="shape-347b2dc6-3bc9-80c3-8002-f97e0a3068a8" rx="0" ry="0"><g id="shape-17d61bf4-3c81-80a1-8002-f97dd5f77c8f" width="24" class="lucide lucide-chevron-right" height="24" rx="0" ry="0" style="fill: rgb(0, 0, 0);"><g id="shape-17d61bf4-3c81-80a1-8002-f97dd5f81ece"><g class="fills" id="fills-17d61bf4-3c81-80a1-8002-f97dd5f81ece"><path fill="none" stroke-linecap="round" stroke-linejoin="round" rx="0" ry="0" d="M126.112,197.500L153.432,170.000L126.112,142.500" style="fill: none;"/></g><g id="strokes-17d61bf4-3c81-80a1-8002-f97dd5f81ece" class="strokes"><g class="stroke-shape"><path stroke-linecap="round" stroke-linejoin="round" rx="0" ry="0" d="M126.112,197.500L153.432,170.000L126.112,142.500" style="fill: none; stroke-width: 15.6607; stroke: rgb(255, 115, 83); stroke-opacity: 1;"/></g></g></g></g><g id="shape-347b2dc6-3bc9-80c3-8002-f97dfa7dc96a" width="24" class="lucide lucide-chevron-right" height="24" rx="0" ry="0" style="fill: rgb(0, 0, 0);"><g id="shape-347b2dc6-3bc9-80c3-8002-f97dfa7dc96c"><g class="fills" id="fills-347b2dc6-3bc9-80c3-8002-f97dfa7dc96c"><path fill="none" stroke-linecap="round" stroke-linejoin="round" rx="0" ry="0" d="M81.980,197.500L109.300,170.000L81.980,142.500" style="fill: none;"/></g><g id="strokes-347b2dc6-3bc9-80c3-8002-f97dfa7dc96c" class="strokes"><g class="stroke-shape"><path stroke-linecap="round" stroke-linejoin="round" rx="0" ry="0" d="M81.980,197.500L109.300,170.000L81.980,142.500" style="fill: none; stroke-width: 15.6607; stroke: rgb(255, 115, 83); stroke-opacity: 1;"/></g></g></g></g><g id="shape-17d61bf4-3c81-80a1-8002-f97e1f44bd37" width="24" class="lucide lucide-chevron-right" height="24" rx="0" ry="0" style="fill: rgb(0, 0, 0);"><g id="shape-17d61bf4-3c81-80a1-8002-f97e1f44fa7d"><g class="fills" id="fills-17d61bf4-3c81-80a1-8002-f97e1f44fa7d"><path fill="none" stroke-linecap="round" stroke-linejoin="round" rx="0" ry="0" d="M170.700,197.500L198.020,170.000L170.700,142.500" style="fill: none;"/></g><g id="strokes-17d61bf4-3c81-80a1-8002-f97e1f44fa7d" class="strokes"><g class="stroke-shape"><path stroke-linecap="round" stroke-linejoin="round" rx="0" ry="0" d="M170.700,197.500L198.020,170.000L170.700,142.500" style="fill: none; stroke-width: 15.6607; stroke: rgb(255, 115, 83); stroke-opacity: 1;"/></g></g></g></g></g></g></g></g></svg>