<svg xmlns:xlink="http://www.w3.org/1999/xlink" width="280" xmlns="http://www.w3.org/2000/svg" height="280" id="screenshot-9a5b5de0-37f2-80aa-8002-f9f465fe7b15" viewBox="0 0 280 280" style="-webkit-print-color-adjust: exact;" fill="none" version="1.1"><g id="shape-9a5b5de0-37f2-80aa-8002-f9f465fe7b15"><defs><clipPath class="frame-clip-def frame-clip" id="frame-clip-9a5b5de0-37f2-80aa-8002-f9f465fe7b15-rumext-id-1"><rect rx="0" ry="0" x="0" y="0" width="279.9999999999982" height="279.9999999999998" transform="matrix(1.000000, 0.000000, 0.000000, 1.000000, 0.000000, 0.000000)" style="fill: rgb(255, 255, 255); fill-opacity: 0;"/></clipPath></defs><g clip-path="url(#frame-clip-9a5b5de0-37f2-80aa-8002-f9f465fe7b15-rumext-id-1)" fill="none"><clipPath class="frame-clip-def frame-clip" id="frame-clip-9a5b5de0-37f2-80aa-8002-f9f465fe7b15-rumext-id-1"><rect rx="0" ry="0" x="0" y="0" width="279.9999999999982" height="279.9999999999998" transform="matrix(1.000000, 0.000000, 0.000000, 1.000000, 0.000000, 0.000000)" style="fill: rgb(255, 255, 255); fill-opacity: 0;"/></clipPath><g class="fills" id="fills-9a5b5de0-37f2-80aa-8002-f9f465fe7b15"><rect width="279.9999999999982" height="279.9999999999998" class="frame-background" x="0" transform="matrix(1.000000, 0.000000, 0.000000, 1.000000, 0.000000, 0.000000)" style="fill: rgb(255, 255, 255); fill-opacity: 0;" ry="0" rx="0" y="0"/></g><g class="frame-children"><g id="shape-9a5b5de0-37f2-80aa-8002-f9f465fe7b16" rx="0" ry="0" style="fill: rgb(0, 0, 0);"/><g id="shape-9a5b5de0-37f2-80aa-8002-f9f465febc1e" rx="0" ry="0"/><g id="shape-9a5b5de0-37f2-80aa-8002-f9f47eba5bfc" rx="0" ry="0"><g id="shape-9a5b5de0-37f2-80aa-8002-f9f47eba5bfd"><g class="fills" id="fills-9a5b5de0-37f2-80aa-8002-f9f47eba5bfd"><ellipse rx="67.50000000000045" ry="67.5" cx="130.50000000000227" cy="134.49999999999977" transform="matrix(1.000000, 0.000000, 0.000000, 1.000000, 0.000000, 0.000000)" style="fill: rgb(204, 170, 41); fill-opacity: 1;"/></g></g><g id="shape-9a5b5de0-37f2-80aa-8002-f9f47eba5bfe"><g class="fills" id="fills-9a5b5de0-37f2-80aa-8002-f9f47eba5bfe"><rect rx="0" ry="0" x="127.80000000000564" y="93.99999999999886" transform="matrix(1.000000, 0.000000, 0.000000, 1.000000, 0.000000, 0.000000)" width="5.399999999998272" height="81.00000000000136" style="fill: rgb(10, 10, 13); fill-opacity: 1;"/></g></g></g><g id="shape-9a5b5de0-37f2-80aa-8002-f9f465febc1f" rx="0" ry="0"><g id="shape-9a5b5de0-37f2-80aa-8002-f9f465febc27" width="24" class="lucide lucide-chevron-right" height="24" rx="0" ry="0" style="fill: rgb(0, 0, 0);"><g id="shape-9a5b5de0-37f2-80aa-8002-f9f465febc2b"><g class="fills" id="fills-9a5b5de0-37f2-80aa-8002-f9f465febc2b"><path fill="none" stroke-linecap="round" stroke-linejoin="round" rx="0" ry="0" d="M217.500,156.888L190.000,129.568L162.500,156.888" style="fill: none;"/></g><g id="strokes-9a5b5de0-37f2-80aa-8002-f9f465febc2b" class="strokes"><g class="stroke-shape"><path stroke-linecap="round" stroke-linejoin="round" rx="0" ry="0" d="M217.500,156.888L190.000,129.568L162.500,156.888" style="fill: none; stroke-width: 15.6607; stroke: rgb(255, 115, 83); stroke-opacity: 1;"/></g></g></g></g><g id="shape-9a5b5de0-37f2-80aa-8002-f9f465febc28" width="24" class="lucide lucide-chevron-right" height="24" rx="0" ry="0" style="fill: rgb(0, 0, 0);"><g id="shape-9a5b5de0-37f2-80aa-8002-f9f465febc2d"><g class="fills" id="fills-9a5b5de0-37f2-80aa-8002-f9f465febc2d"><path fill="none" stroke-linecap="round" stroke-linejoin="round" rx="0" ry="0" d="M217.500,201.020L190.000,173.700L162.500,201.020" style="fill: none;"/></g><g id="strokes-9a5b5de0-37f2-80aa-8002-f9f465febc2d" class="strokes"><g class="stroke-shape"><path stroke-linecap="round" stroke-linejoin="round" rx="0" ry="0" d="M217.500,201.020L190.000,173.700L162.500,201.020" style="fill: none; stroke-width: 15.6607; stroke: rgb(255, 115, 83); stroke-opacity: 1;"/></g></g></g></g><g id="shape-9a5b5de0-37f2-80aa-8002-f9f465febc29" width="24" class="lucide lucide-chevron-right" height="24" rx="0" ry="0" style="fill: rgb(0, 0, 0);"><g id="shape-9a5b5de0-37f2-80aa-8002-f9f465febc2f"><g class="fills" id="fills-9a5b5de0-37f2-80aa-8002-f9f465febc2f"><path fill="none" stroke-linecap="round" stroke-linejoin="round" rx="0" ry="0" d="M217.500,112.300L190.000,84.980L162.500,112.300" style="fill: none;"/></g><g id="strokes-9a5b5de0-37f2-80aa-8002-f9f465febc2f" class="strokes"><g class="stroke-shape"><path stroke-linecap="round" stroke-linejoin="round" rx="0" ry="0" d="M217.500,112.300L190.000,84.980L162.500,112.300" style="fill: none; stroke-width: 15.6607; stroke: rgb(255, 115, 83); stroke-opacity: 1;"/></g></g></g></g></g></g></g></g></svg>