<svg xmlns:xlink="http://www.w3.org/1999/xlink" width="280" xmlns="http://www.w3.org/2000/svg" height="280" id="screenshot-9a5b5de0-37f2-80aa-8002-f9f4d9b5e521" viewBox="0 0 280 280" style="-webkit-print-color-adjust: exact;" fill="none" version="1.1"><g id="shape-9a5b5de0-37f2-80aa-8002-f9f4d9b5e521"><defs><clipPath class="frame-clip-def frame-clip" id="frame-clip-9a5b5de0-37f2-80aa-8002-f9f4d9b5e521-rumext-id-1"><rect rx="0" ry="0" x="0" y="0" width="279.9999999999982" height="279.9999999999998" transform="matrix(1.000000, 0.000000, 0.000000, 1.000000, 0.000000, 0.000000)" style="fill: rgb(255, 255, 255); fill-opacity: 0;"/></clipPath></defs><g clip-path="url(#frame-clip-9a5b5de0-37f2-80aa-8002-f9f4d9b5e521-rumext-id-1)" fill="none"><clipPath class="frame-clip-def frame-clip" id="frame-clip-9a5b5de0-37f2-80aa-8002-f9f4d9b5e521-rumext-id-1"><rect rx="0" ry="0" x="0" y="0" width="279.9999999999982" height="279.9999999999998" transform="matrix(1.000000, 0.000000, 0.000000, 1.000000, 0.000000, 0.000000)" style="fill: rgb(255, 255, 255); fill-opacity: 0;"/></clipPath><g class="fills" id="fills-9a5b5de0-37f2-80aa-8002-f9f4d9b5e521"><rect width="279.9999999999982" height="279.9999999999998" class="frame-background" x="0" transform="matrix(1.000000, 0.000000, 0.000000, 1.000000, 0.000000, 0.000000)" style="fill: rgb(255, 255, 255); fill-opacity: 0;" ry="0" rx="0" y="0"/></g><g class="frame-children"><g id="shape-9a5b5de0-37f2-80aa-8002-f9f4ef1efacd" rx="0" ry="0"><g id="shape-9a5b5de0-37f2-80aa-8002-f9fcff8a44fe"><g class="fills" id="fills-9a5b5de0-37f2-80aa-8002-f9fcff8a44fe"><path rx="0" ry="0" d="M170.000,98.000C170.000,98.000,184.990,98.432,197.321,106.821C207.221,113.555,215.000,125.151,215.000,137.292C215.000,150.615,208.405,164.977,198.929,172.575C186.350,182.660,170.000,183.000,170.000,183.000"/></g><g id="strokes-9a5b5de0-37f2-80aa-8002-f9fcff8a44fe" class="strokes"><g class="stroke-shape"><path rx="0" ry="0" d="M170.000,98.000C170.000,98.000,184.990,98.432,197.321,106.821C207.221,113.555,215.000,125.151,215.000,137.292C215.000,150.615,208.405,164.977,198.929,172.575C186.350,182.660,170.000,183.000,170.000,183.000" style="fill: none; stroke-width: 5.02; stroke: rgb(255, 115, 83); stroke-opacity: 1;"/></g></g></g><g id="shape-9a5b5de0-37f2-80aa-8002-f9fd8d479076"><g class="fills" id="fills-9a5b5de0-37f2-80aa-8002-f9fd8d479076"><path rx="0" ry="0" d="M170.000,88.000C170.000,88.000,187.988,88.524,202.786,98.689C214.665,106.849,224.000,120.901,224.000,135.613C224.000,151.758,216.086,169.161,204.714,178.368C189.620,190.589,170.000,191.000,170.000,191.000"/></g><g id="strokes-9a5b5de0-37f2-80aa-8002-f9fd8d479076" class="strokes"><g class="stroke-shape"><path rx="0" ry="0" d="M170.000,88.000C170.000,88.000,187.988,88.524,202.786,98.689C214.665,106.849,224.000,120.901,224.000,135.613C224.000,151.758,216.086,169.161,204.714,178.368C189.620,190.589,170.000,191.000,170.000,191.000" style="fill: none; stroke-width: 4.879; stroke: rgb(255, 115, 83); stroke-opacity: 1;"/></g></g></g><g id="shape-9a5b5de0-37f2-80aa-8002-f9f4ef1eface"><g class="fills" id="fills-9a5b5de0-37f2-80aa-8002-f9f4ef1eface"><path rx="0" ry="0" d="M169.737,105.868C169.737,131.092,169.737,173.132,169.737,173.132C169.737,173.132,169.737,133.895,169.737,105.868ZC186.916,105.868,205.000,118.750,205.000,137.632C205.000,153.317,195.054,172.197,169.737,173.132" style="fill: rgb(255, 115, 83); fill-opacity: 1;"/></g><g id="strokes-9a5b5de0-37f2-80aa-8002-f9f4ef1eface" class="strokes"><g class="stroke-shape"><path rx="0" ry="0" d="M169.737,105.868C169.737,131.092,169.737,173.132,169.737,173.132C169.737,173.132,169.737,133.895,169.737,105.868ZC186.916,105.868,205.000,118.750,205.000,137.632C205.000,153.317,195.054,172.197,169.737,173.132" style="fill: none; stroke-width: 3.70835; stroke: rgb(255, 115, 83); stroke-opacity: 1;"/></g></g></g><g id="shape-9a5b5de0-37f2-80aa-8002-f9f4ef1efacf"><g class="fills" id="fills-9a5b5de0-37f2-80aa-8002-f9f4ef1efacf"><path d="M57.708351833543574,103.99999999999977 h112.02817511256616 a0,0 0 0 1 0,0 v71.00000000000136 a0,0 0 0 1 0,0 h-112.02817511256616 a3.7083518335444814,3.7083518335444814 0 0 1 -3.7083518335444814,-3.7083518335444814 v-63.5832963329124 a3.7083518335444814,3.7083518335444814 0 0 1 3.7083518335444814,-3.7083518335444814 z" x="53.99999999999909" y="103.99999999999977" transform="matrix(1.000000, 0.000000, 0.000000, 1.000000, 0.000000, 0.000000)" width="115.73652694611064" height="71.00000000000136" style="fill: rgb(48, 47, 68); fill-opacity: 1;"/></g></g></g></g></g></g></svg>