<svg xmlns:xlink="http://www.w3.org/1999/xlink" width="280" xmlns="http://www.w3.org/2000/svg" height="280" id="screenshot-347b2dc6-3bc9-80c3-8002-f9835495a176" viewBox="0 0 280 280" style="-webkit-print-color-adjust: exact;" fill="none" version="1.1"><g id="shape-347b2dc6-3bc9-80c3-8002-f9835495a176"><defs><clipPath class="frame-clip-def frame-clip" id="frame-clip-347b2dc6-3bc9-80c3-8002-f9835495a176-rumext-id-1"><rect rx="0" ry="0" x="0" y="0" width="279.9999999999982" height="279.9999999999998" transform="matrix(1.000000, 0.000000, 0.000000, 1.000000, 0.000000, 0.000000)" style="fill: rgb(255, 255, 255); fill-opacity: 0;"/></clipPath></defs><g clip-path="url(#frame-clip-347b2dc6-3bc9-80c3-8002-f9835495a176-rumext-id-1)" fill="none"><clipPath class="frame-clip-def frame-clip" id="frame-clip-347b2dc6-3bc9-80c3-8002-f9835495a176-rumext-id-1"><rect rx="0" ry="0" x="0" y="0" width="279.9999999999982" height="279.9999999999998" transform="matrix(1.000000, 0.000000, 0.000000, 1.000000, 0.000000, 0.000000)" style="fill: rgb(255, 255, 255); fill-opacity: 0;"/></clipPath><g class="fills" id="fills-347b2dc6-3bc9-80c3-8002-f9835495a176"><rect width="279.9999999999982" height="279.9999999999998" class="frame-background" x="0" transform="matrix(1.000000, 0.000000, 0.000000, 1.000000, 0.000000, 0.000000)" style="fill: rgb(255, 255, 255); fill-opacity: 0;" ry="0" rx="0" y="0"/></g><g class="frame-children"><g id="shape-347b2dc6-3bc9-80c3-8002-f979b1b0647b" rx="0" ry="0" style="fill: rgb(0, 0, 0);"/><g id="shape-17d61bf4-3c81-80a1-8002-f985545c14a5" rx="0" ry="0"><g id="shape-17d61bf4-3c81-80a1-8002-f984a7b6be71" width="24" class="lucide lucide-star" height="24" rx="0" ry="0" style="fill: rgb(0, 0, 0);"><g id="shape-17d61bf4-3c81-80a1-8002-f984a7b7f650"><g class="fills" id="fills-17d61bf4-3c81-80a1-8002-f984a7b7f650"><path fill="none" stroke-linecap="round" stroke-linejoin="round" rx="0" ry="0" d="M130.500,60.307L153.117,106.126L203.693,113.518L167.097,149.163L175.734,199.520L130.500,175.733L85.266,199.520L93.903,149.163L57.307,113.518L107.883,106.126L130.500,60.307ZZ" style="fill: rgb(48, 47, 68); fill-opacity: 1;"/></g><g id="strokes-17d61bf4-3c81-80a1-8002-f984a7b7f650" class="strokes"><g class="stroke-shape"><path stroke-linecap="round" stroke-linejoin="round" rx="0" ry="0" d="M130.500,60.307L153.117,106.126L203.693,113.518L167.097,149.163L175.734,199.520L130.500,175.733L85.266,199.520L93.903,149.163L57.307,113.518L107.883,106.126L130.500,60.307ZZ" style="fill: none; stroke-width: 4.40668; stroke: rgb(64, 64, 91); stroke-opacity: 1;"/></g></g></g></g></g><g id="shape-17d61bf4-3c81-80a1-8002-f9855bb87218" rx="0" ry="0"><g id="shape-17d61bf4-3c81-80a1-8002-f9855bb89912" width="24" class="lucide lucide-chevron-right" height="24" rx="0" ry="0" style="fill: rgb(0, 0, 0);"><g id="shape-17d61bf4-3c81-80a1-8002-f9855bb89916"><g class="fills" id="fills-17d61bf4-3c81-80a1-8002-f9855bb89916"><path fill="none" stroke-linecap="round" stroke-linejoin="round" rx="0" ry="0" d="M217.500,156.888L190.000,129.568L162.500,156.888" style="fill: none;"/></g><g id="strokes-17d61bf4-3c81-80a1-8002-f9855bb89916" class="strokes"><g class="stroke-shape"><path stroke-linecap="round" stroke-linejoin="round" rx="0" ry="0" d="M217.500,156.888L190.000,129.568L162.500,156.888" style="fill: none; stroke-width: 15.6607; stroke: rgb(255, 115, 83); stroke-opacity: 1;"/></g></g></g></g><g id="shape-17d61bf4-3c81-80a1-8002-f9855bb89913" width="24" class="lucide lucide-chevron-right" height="24" rx="0" ry="0" style="fill: rgb(0, 0, 0);"><g id="shape-17d61bf4-3c81-80a1-8002-f9855bb89918"><g class="fills" id="fills-17d61bf4-3c81-80a1-8002-f9855bb89918"><path fill="none" stroke-linecap="round" stroke-linejoin="round" rx="0" ry="0" d="M217.500,201.020L190.000,173.700L162.500,201.020" style="fill: none;"/></g><g id="strokes-17d61bf4-3c81-80a1-8002-f9855bb89918" class="strokes"><g class="stroke-shape"><path stroke-linecap="round" stroke-linejoin="round" rx="0" ry="0" d="M217.500,201.020L190.000,173.700L162.500,201.020" style="fill: none; stroke-width: 15.6607; stroke: rgb(255, 115, 83); stroke-opacity: 1;"/></g></g></g></g><g id="shape-17d61bf4-3c81-80a1-8002-f9855bb89914" width="24" class="lucide lucide-chevron-right" height="24" rx="0" ry="0" style="fill: rgb(0, 0, 0);"><g id="shape-17d61bf4-3c81-80a1-8002-f9855bb8991a"><g class="fills" id="fills-17d61bf4-3c81-80a1-8002-f9855bb8991a"><path fill="none" stroke-linecap="round" stroke-linejoin="round" rx="0" ry="0" d="M217.500,112.300L190.000,84.980L162.500,112.300" style="fill: none;"/></g><g id="strokes-17d61bf4-3c81-80a1-8002-f9855bb8991a" class="strokes"><g class="stroke-shape"><path stroke-linecap="round" stroke-linejoin="round" rx="0" ry="0" d="M217.500,112.300L190.000,84.980L162.500,112.300" style="fill: none; stroke-width: 15.6607; stroke: rgb(255, 115, 83); stroke-opacity: 1;"/></g></g></g></g></g></g></g></g></svg>