<svg xmlns:xlink="http://www.w3.org/1999/xlink" width="280" xmlns="http://www.w3.org/2000/svg" height="280" id="screenshot-c06e3284-3ca7-804e-8002-f972159292ba" viewBox="0 0 280 280" style="-webkit-print-color-adjust: exact;" fill="none" version="1.1"><g id="shape-c06e3284-3ca7-804e-8002-f972159292ba"><defs><clipPath class="frame-clip-def frame-clip" id="frame-clip-c06e3284-3ca7-804e-8002-f972159292ba-rumext-id-1"><rect rx="0" ry="0" x="0" y="0" width="279.9999999999982" height="280" transform="matrix(1.000000, 0.000000, 0.000000, 1.000000, 0.000000, 0.000000)"/></clipPath></defs><g clip-path="url(#frame-clip-c06e3284-3ca7-804e-8002-f972159292ba-rumext-id-1)" fill="none"><clipPath class="frame-clip-def frame-clip" id="frame-clip-c06e3284-3ca7-804e-8002-f972159292ba-rumext-id-1"><rect rx="0" ry="0" x="0" y="0" width="279.9999999999982" height="280" transform="matrix(1.000000, 0.000000, 0.000000, 1.000000, 0.000000, 0.000000)"/></clipPath><g class="fills" id="fills-c06e3284-3ca7-804e-8002-f972159292ba"><rect rx="0" ry="0" x="0" y="0" transform="matrix(1.000000, 0.000000, 0.000000, 1.000000, 0.000000, 0.000000)" width="279.9999999999982" height="280" class="frame-background"/></g><g class="frame-children"><g id="shape-17d61bf4-3c81-80a1-8002-f977afcbf1a4" rx="0" ry="0"><g id="shape-17d61bf4-3c81-80a1-8002-f9775c8ecb27"><g class="fills" id="fills-17d61bf4-3c81-80a1-8002-f9775c8ecb27"><rect rx="2.297468354430066" ry="2.297468354430066" x="11.326088062348845" y="137.3928409239304" transform="matrix(0.956305, -0.292372, 0.292372, 0.956305, -36.671057, 34.008850)" width="168.23529411764775" height="4.594936708860132" style="fill: rgb(255, 115, 83); fill-opacity: 1;"/></g></g><g id="shape-17d61bf4-3c81-80a1-8002-f9758e95c522" rx="0" ry="0"><g id="shape-c06e3284-3ca7-804e-8002-f972b6caa052"><g class="fills" id="fills-c06e3284-3ca7-804e-8002-f972b6caa052"><path rx="0" ry="0" d="M218.882,88.338C224.928,108.111,235.003,141.067,235.003,141.067C235.003,141.067,225.599,110.308,218.882,88.338ZC232.777,84.090,250.490,89.717,255.015,104.518C258.775,116.815,255.256,134.075,235.003,141.067" style="fill: rgb(255, 115, 83); fill-opacity: 1;"/></g><g id="strokes-c06e3284-3ca7-804e-8002-f972b6caa052" class="strokes"><g class="stroke-shape"><path rx="0" ry="0" d="M218.882,88.338C224.928,108.111,235.003,141.067,235.003,141.067C235.003,141.067,225.599,110.308,218.882,88.338ZC232.777,84.090,250.490,89.717,255.015,104.518C258.775,116.815,255.256,134.075,235.003,141.067" style="fill: none; stroke-width: 3.06129; stroke: rgb(255, 115, 83); stroke-opacity: 1;"/></g></g></g><g id="shape-c06e3284-3ca7-804e-8002-f9722a5f00d5"><g class="fills" id="fills-c06e3284-3ca7-804e-8002-f9722a5f00d5"><path d="M134.26014423317102,99.91026304315938 h94.82106665046247 a0,0 0 0 1 0,0 v58.20253164556971 a0,0 0 0 1 0,0 h-94.82106665046247 a3.061286290714106,3.061286290714106 0 0 1 -3.061286290714106,-3.061286290714106 v-52.07995906414149 a3.061286290714106,3.061286290714106 0 0 1 3.061286290714106,-3.061286290714106 z" x="131.19885794245693" y="99.91026304315938" transform="matrix(0.956305, -0.292372, 0.292372, 0.956305, -29.848058, 58.305039)" width="97.88235294117658" height="58.20253164556971" style="fill: rgb(48, 47, 68); fill-opacity: 1;"/></g></g></g><g id="shape-17d61bf4-3c81-80a1-8002-f977634801ac"><g class="fills" id="fills-17d61bf4-3c81-80a1-8002-f977634801ac"><rect rx="2.297468354430407" ry="2.297468354430407" x="64.96173316269005" y="158.63841872982152" transform="matrix(0.956305, -0.292372, 0.292372, 0.956305, -41.340976, 45.252845)" width="131.52941176470677" height="4.594936708860814" style="fill: rgb(255, 115, 83); fill-opacity: 1;"/></g></g><g id="shape-17d61bf4-3c81-80a1-8002-f9776949466f"><g class="fills" id="fills-17d61bf4-3c81-80a1-8002-f9776949466f"><rect rx="2.297468354430407" ry="2.297468354430407" x="115.29917212161081" y="182.38920086989583" transform="matrix(0.956305, -0.292372, 0.292372, 0.956305, -46.185768, 60.337149)" width="126.94117647058874" height="4.594936708860814" style="fill: rgb(255, 115, 83); fill-opacity: 1;"/></g></g><g id="shape-17d61bf4-3c81-80a1-8002-f97738f28e5e"><g class="fills" id="fills-17d61bf4-3c81-80a1-8002-f97738f28e5e"><rect rx="2.2974683544306345" ry="2.2974683544306345" x="42.009762300661805" y="84.7087653349372" transform="matrix(0.956305, -0.292372, 0.292372, 0.956305, -21.063069, 33.076180)" width="116.23529411764866" height="4.594936708861269" style="fill: rgb(255, 115, 83); fill-opacity: 1;"/></g></g><g id="shape-17d61bf4-3c81-80a1-8002-f9774e8b70ff"><g class="fills" id="fills-17d61bf4-3c81-80a1-8002-f9774e8b70ff"><rect rx="2.297468354430407" ry="2.297468354430407" x="169.72997690873717" y="59.22083201734358" transform="matrix(0.956305, -0.292372, 0.292372, 0.956305, -9.968365, 56.336710)" width="27.529411764704037" height="4.594936708860814" style="fill: rgb(255, 115, 83); fill-opacity: 1;"/></g></g><g id="shape-17d61bf4-3c81-80a1-8002-f9776f854660"><g class="fills" id="fills-17d61bf4-3c81-80a1-8002-f9776f854660"><rect rx="2.297468354430748" ry="2.297468354430748" x="51.370795196221025" y="215.14343096662833" transform="matrix(0.956305, -0.292372, 0.292372, 0.956305, -60.443436, 30.445327)" width="40.52941176470722" height="4.594936708861496" style="fill: rgb(255, 115, 83); fill-opacity: 1;"/></g></g></g></g></g></g></svg>