<svg xmlns:xlink="http://www.w3.org/1999/xlink" width="280" xmlns="http://www.w3.org/2000/svg" height="280" id="screenshot-9a5b5de0-37f2-80aa-8002-f9f917f1fe90" viewBox="0 0 280 280" style="-webkit-print-color-adjust: exact;" fill="none" version="1.1"><g id="shape-9a5b5de0-37f2-80aa-8002-f9f917f1fe90"><defs><clipPath class="frame-clip-def frame-clip" id="frame-clip-9a5b5de0-37f2-80aa-8002-f9f917f1fe90-rumext-id-1"><rect rx="0" ry="0" x="0" y="0" width="279.9999999999982" height="280" transform="matrix(1.000000, 0.000000, 0.000000, 1.000000, 0.000000, 0.000000)"/></clipPath></defs><g clip-path="url(#frame-clip-9a5b5de0-37f2-80aa-8002-f9f917f1fe90-rumext-id-1)" fill="none"><clipPath class="frame-clip-def frame-clip" id="frame-clip-9a5b5de0-37f2-80aa-8002-f9f917f1fe90-rumext-id-1"><rect rx="0" ry="0" x="0" y="0" width="279.9999999999982" height="280" transform="matrix(1.000000, 0.000000, 0.000000, 1.000000, 0.000000, 0.000000)"/></clipPath><g class="fills" id="fills-9a5b5de0-37f2-80aa-8002-f9f917f1fe90"><rect rx="0" ry="0" x="0" y="0" transform="matrix(1.000000, 0.000000, 0.000000, 1.000000, 0.000000, 0.000000)" width="279.9999999999982" height="280" class="frame-background"/></g><g class="frame-children"><g id="shape-9a5b5de0-37f2-80aa-8002-f9f97761546a"><g class="fills" id="fills-9a5b5de0-37f2-80aa-8002-f9f97761546a"><path rx="0" ry="0" d="M43.000,108.054L141.955,76.901L108.054,173.108L93.394,125.463L43.000,108.054Z" style="fill: rgb(48, 47, 68); fill-opacity: 1;"/></g><g id="strokes-9a5b5de0-37f2-80aa-8002-f9f97761546a" class="strokes"><g class="stroke-shape"><path rx="0" ry="0" d="M43.000,108.054L141.955,76.901L108.054,173.108L93.394,125.463L43.000,108.054Z" style="fill: none; stroke-width: 15.2319; stroke: rgb(48, 47, 68); stroke-opacity: 1;"/></g></g></g><g id="shape-9a5b5de0-37f2-80aa-8002-f9fb0d2c0f48" width="24" class="lucide lucide-timer" height="24" rx="0" ry="0" style="fill: rgb(0, 0, 0);"><g id="shape-9a5b5de0-37f2-80aa-8002-f9fb0d2d0b3c"><g class="fills" id="fills-9a5b5de0-37f2-80aa-8002-f9fb0d2d0b3c"><path fill="none" stroke-linejoin="round" stroke-linecap="round" rx="0" ry="0" d="M136.667,79.333L165.333,79.333" style="fill: none;"/></g><g id="strokes-9a5b5de0-37f2-80aa-8002-f9fb0d2d0b3c" class="strokes"><g class="stroke-shape"><path stroke-linejoin="round" stroke-linecap="round" rx="0" ry="0" d="M136.667,79.333L165.333,79.333" style="fill: none; stroke-width: 14.342; stroke: rgb(255, 115, 83); stroke-opacity: 1;"/></g></g></g><g id="shape-9a5b5de0-37f2-80aa-8002-f9fb0d2df377"><g class="fills" id="fills-9a5b5de0-37f2-80aa-8002-f9fb0d2df377"><path fill="none" stroke-linejoin="round" stroke-linecap="round" rx="0" ry="0" d="M151.000,165.333L172.500,143.833" style="fill: none;"/></g><g id="strokes-9a5b5de0-37f2-80aa-8002-f9fb0d2df377" class="strokes"><g class="stroke-shape"><path stroke-linejoin="round" stroke-linecap="round" rx="0" ry="0" d="M151.000,165.333L172.500,143.833" style="fill: none; stroke-width: 14.342; stroke: rgb(255, 115, 83); stroke-opacity: 1;"/></g></g></g><g id="shape-9a5b5de0-37f2-80aa-8002-f9fb0d2df378"><g class="fills" id="fills-9a5b5de0-37f2-80aa-8002-f9fb0d2df378"><ellipse cy="165.33333333333394" stroke-linejoin="round" transform="matrix(1.000000, 0.000000, 0.000000, 1.000000, 0.000000, 0.000000)" style="fill: none;" ry="57.33333333333394" fill="none" stroke-linecap="round" rx="57.333333333332575" cx="151"/></g><g id="strokes-9a5b5de0-37f2-80aa-8002-f9fb0d2df378" class="strokes"><g class="stroke-shape"><ellipse stroke-linecap="round" stroke-linejoin="round" rx="57.333333333332575" ry="57.33333333333394" cx="151" cy="165.33333333333394" transform="matrix(1.000000, 0.000000, 0.000000, 1.000000, 0.000000, 0.000000)" style="fill: none; stroke-width: 14.342; stroke: rgb(255, 115, 83); stroke-opacity: 1;"/></g></g></g></g></g></g></g></svg>